<?xml version="1.0" encoding="UTF-8" standalone="no"?>
<!DOCTYPE svg PUBLIC "-//W3C//DTD SVG 1.1//EN" "http://www.w3.org/Graphics/SVG/1.1/DTD/svg11.dtd">
<svg xmlns="http://www.w3.org/2000/svg">
<metadata>Generated by IcoMoon</metadata>
<defs>
<font id="icon3000" horiz-adv-x="1024">
<font-face units-per-em="1024" ascent="960" descent="-64"/>
<missing-glyph horiz-adv-x="1024"/>
<glyph unicode=" " d="" horiz-adv-x="512"/>
<glyph unicode="" d="M768 576h-128v128h-128v-128h-128v-128h128v-128h128v128h128zM578.432 928c-228.416 0-413.568-185.12-413.568-413.568 0-67.52 16.512-131.072 45.216-187.36l-173.888-212.512c-25.856-25.856-25.856-67.744 0-93.6 25.856-25.824 67.744-25.824 93.568 0l199.936 163.584c69.28-52.32 155.232-83.712 248.704-83.712 228.448 0.032 413.6 185.152 413.6 413.6 0 228.448-185.152 413.568-413.568 413.568zM578.432 183.040c-182.72 0-331.392 148.672-331.392 331.392s148.64 331.392 331.392 331.392 331.392-148.672 331.392-331.392-148.672-331.392-331.392-331.392z"/>
<glyph unicode="" d="M61.056 252.416c0-15.296 5.856-30.592 17.504-42.24 23.328-23.328 61.184-23.328 84.512 0l348.928 348.896 348.928-348.896c23.328-23.328 61.184-23.328 84.512 0 23.328 23.328 23.328 61.152 0 84.512l-391.2 391.168c-23.328 23.328-61.184 23.328-84.512 0l-391.168-391.2c-11.68-11.648-17.504-26.976-17.504-42.24z"/>
<glyph unicode="" d="M48.8 464c0-220.96 179.072-400 400-400 90.432 0 173.568 30.368 240.576 80.928l193.376-158.176c24.992-24.992 65.504-24.992 90.528 0 24.992 24.992 24.992 65.504 0 90.496l-168.16 205.536c27.744 54.464 43.712 115.904 43.712 181.216 0 220.96-179.072 400-400 400s-400.032-179.040-400.032-400zM124.576 464c0 178.816 145.44 324.256 324.256 324.256s324.224-145.44 324.224-324.256-145.44-324.256-324.256-324.256-324.224 145.44-324.224 324.256z"/>
<glyph unicode="" d="M707.584-5.92c15.296 0 30.592 5.856 42.24 17.504 23.328 23.328 23.328 61.184 0 84.512l-348.896 348.928 348.928 348.96c23.328 23.328 23.328 61.184 0 84.512s-61.152 23.328-84.512 0l-391.2-391.2c-23.328-23.328-23.328-61.184 0-84.512l391.2-391.2c11.648-11.648 26.976-17.504 42.24-17.504z"/>
<glyph unicode="" d="M1019.52 610.336l-262.144 202.336c-3.52 2.688-8.16 3.168-12.128 1.216s-6.464-5.952-6.464-10.368v-94.944c-30.080-5.312-121.664-24.96-198.656-77.184-94.752-64.128-172.544-169.152-185.728-227.104-1.056-4.704 0.928-9.696 5.024-12.32 1.92-1.216 4.064-1.76 6.176-1.76 2.528 0 5.056 0.832 7.136 2.4 50.304 39.296 148.96 78.464 189.088 93.472 58.080 21.792 115.2 28.768 176.96 20.992v-102.432c0-4.416 2.496-8.384 6.4-10.336s8.608-1.6 12.032 0.992l262.176 196.672c2.88 2.144 4.608 5.536 4.608 9.152 0 3.552-1.632 7.072-4.48 9.216zM864 352v-160c0-17.696-14.336-32-32-32h-640c-17.664 0-32 14.304-32 32v448c0 17.696 14.336 32 32 32h192v128h-192c-88.224 0-160-71.776-160-160v-448c0-88.224 71.776-160 160-160h640c88.224 0 160 71.776 160 160v160h-128z"/>
<glyph unicode="" d="M316.416-18.944c-15.296 0-30.592 5.856-42.24 17.504-23.328 23.328-23.328 61.184 0 84.512l348.928 348.928-348.96 348.928c-23.328 23.328-23.328 61.184 0 84.512s61.152 23.328 84.512 0l391.2-391.2c23.328-23.328 23.328-61.184 0-84.512l-391.2-391.168c-11.648-11.648-26.944-17.504-42.24-17.504z"/>
<glyph unicode="" d="M962.944 643.584c0 15.296-5.856 30.592-17.504 42.24-23.328 23.328-61.184 23.328-84.512 0l-348.928-348.896-348.928 348.928c-23.328 23.328-61.184 23.328-84.512 0s-23.328-61.152 0-84.512l391.2-391.2c23.328-23.328 61.184-23.328 84.512 0l391.2 391.2c11.648 11.648 17.472 26.976 17.472 42.24z"/>
<glyph unicode="" d="M512 928c-265.088 0-480-214.912-480-480s214.912-480 480-480 480 214.912 480 480-214.912 480-480 480zM745.568 549.216c0.224-5.056 0.384-10.112 0.384-15.168 0-154.88-117.92-333.44-333.44-333.44-66.208 0-127.808 19.392-179.68 52.64 9.152-1.088 18.496-1.632 27.936-1.632 54.912 0 105.44 18.72 145.568 50.144-51.296 0.96-94.56 34.848-109.472 81.408 7.136-1.376 14.496-2.112 22.048-2.112 10.688 0 21.024 1.44 30.88 4.128-53.6 10.752-94.016 58.144-94.016 114.912 0 0.512 0 0.992 0 1.504 15.808-8.8 33.92-14.080 53.088-14.688-31.424 21.024-52.128 56.896-52.128 97.568 0 21.472 5.792 41.6 15.904 58.912 57.76-70.912 144.128-117.568 241.536-122.464-2.016 8.576-3.040 17.536-3.040 26.72 0 64.736 52.512 117.216 117.216 117.216 33.728 0 64.16-14.208 85.568-37.024 26.656 5.248 51.776 15.008 74.4 28.448-8.736-27.36-27.328-50.336-51.52-64.8 23.744 2.784 46.304 9.12 67.328 18.432-15.744-23.552-35.648-44.16-58.56-60.704z"/>
<glyph unicode="" d="M900.192 820.032c-1.632 14.88-13.376 26.624-28.256 28.256l-259.936 28.896c-1.184 0.128-2.368 0.192-3.52 0.192-8.448 0-16.608-3.328-22.624-9.376l-505.344-505.376c-12.512-12.512-12.512-32.736 0-45.248l288.768-288.8c6.016-6.016 14.144-9.376 22.624-9.376s16.64 3.36 22.624 9.376l505.376 505.344c6.88 6.88 10.24 16.512 9.184 26.144l-28.896 259.968zM787.744 650.816c-29.408-29.408-77.088-29.408-106.528 0-29.408 29.408-29.408 77.088 0 106.528 29.44 29.408 77.088 29.408 106.528 0 29.408-29.408 29.408-77.12 0-106.528z"/>
<glyph unicode="" d="M976.928 560.8c-1.888 5.792-6.88 10.016-12.928 10.88l-302.4 43.968-135.264 274.016c-5.376 10.944-23.328 10.944-28.672 0l-135.264-274.016-302.4-43.968c-6.016-0.864-11.040-5.088-12.928-10.88s-0.32-12.128 4.032-16.384l218.848-213.344-51.68-301.184c-1.024-6.016 1.44-12.064 6.368-15.648 4.96-3.616 11.52-4.064 16.832-1.216l270.528 142.208 270.496-142.176c2.336-1.248 4.896-1.856 7.424-1.856 3.328 0 6.624 1.024 9.408 3.072 4.928 3.584 7.392 9.632 6.368 15.648l-51.68 301.184 218.848 213.344c4.384 4.224 5.952 10.56 4.064 16.352z"/>
<glyph unicode="" d="M512 774.112l107.104-216.992 239.456-34.816-173.312-168.928 5.696-33.184 35.232-205.312-214.176 112.64-214.176-112.576 40.928 238.496-173.312 168.896 239.456 34.816 14.88 30.176 92.224 186.784M512 897.856c-5.824 0-11.648-2.72-14.336-8.192l-135.264-274.016-302.4-43.968c-6.016-0.864-11.040-5.088-12.928-10.88s-0.32-12.128 4.032-16.384l218.848-213.344-51.68-301.152c-1.024-6.016 1.44-12.064 6.368-15.648 2.784-2.016 6.112-3.072 9.44-3.072 2.56 0 5.088 0.608 7.392 1.856l270.528 142.176 270.496-142.176c2.336-1.216 4.896-1.856 7.424-1.856 3.328 0 6.624 1.024 9.408 3.072 4.928 3.584 7.392 9.664 6.368 15.648l-51.68 301.152 218.848 213.344c4.352 4.256 5.92 10.624 4.032 16.384-1.888 5.792-6.88 10.016-12.928 10.88l-302.4 43.968-135.264 274.016c-2.656 5.472-8.48 8.192-14.304 8.192v0z"/>
<glyph unicode="" d="M832 245.952c-115.488 7.968-186.304 59.712-257.6 129.568-10.24-10.304-20.672-20.928-31.488-32.192-17.056-17.792-26.688-40.096-45.344-61.472-1.536-1.792-3.2-3.648-4.768-5.44 82.368-78.624 182.688-149.824 339.2-158.464v-109.344l175.552 175.264-175.552 175.2v-113.12zM315.072 467.328c14.272 18.56 27.36 38.912 43.136 55.36 12.128 12.672 25.792 26.24 40.512 40.224-92.896 94.752-212.224 184.288-398.72 184.288v-128c145.696 0 238.656-71.616 315.072-151.872zM832 573.824v-113.12l175.552 175.296-175.552 175.232v-109.344c-199.328-11.008-307.648-123.456-403.616-223.488-105.536-109.984-205.216-277.856-428.384-277.856v-128c277.728 0 406.816 198.528 520.736 317.216 92.64 96.544 167.232 174.112 311.264 184.064z"/>
<glyph unicode="" d="M512 928c-265.088 0-480-214.912-480-480s214.912-480 480-480 480 214.912 480 480-214.912 480-480 480zM345.696 219.872c-34.144 0-61.824 27.68-61.824 61.824s27.68 61.824 61.824 61.824 61.824-27.68 61.824-61.824-27.68-61.824-61.824-61.824zM494.88 226.496c0 112.672-91.68 204.384-204.384 204.384v96c165.92 0 300.384-134.464 300.384-300.384h-96zM669.376 226.496c0 208.896-169.984 378.88-378.88 378.88v96c262.272 0 474.88-212.608 474.88-474.88h-96z"/>
<glyph unicode="" d="M869.344 832h-714.688c-50.048 0-90.656-33.824-90.656-75.552v-8.896c0-41.728 40.608-75.552 90.656-75.552h714.688c50.048 0 90.656 33.824 90.656 75.552v8.896c0 41.728-40.608 75.552-90.656 75.552zM869.344 544h-714.688c-50.048 0-90.656-33.824-90.656-75.552v-8.896c0-41.728 40.608-75.552 90.656-75.552h714.688c50.048 0 90.656 33.824 90.656 75.552v8.896c0 41.728-40.608 75.552-90.656 75.552zM869.344 256h-714.688c-50.048 0-90.656-33.824-90.656-75.552v-8.896c0-41.728 40.608-75.552 90.656-75.552h714.688c50.048 0 90.656 33.824 90.656 75.552v8.896c0 41.728-40.608 75.552-90.656 75.552z"/>
<glyph unicode="" d="M944.847 137.348l-246.614 246.614 37.787 37.787 246.614-246.614-37.787-37.787zM960 768h-896c-35.328 0-64-30.080-64-67.2v-537.6c0-37.12 28.672-67.2 64-67.2h896c35.328 0 64 30.080 64 67.2v537.6c0 37.12-28.672 67.2-64 67.2zM910.816 704l-398.816-341.856-398.816 341.856h797.632zM959.488 160l-858.016-0.32 224.32 224.32-37.792 37.792-224-224v464.064l427.168-366.144c0 0 8.32-5.696 20.832-5.696 11.488 0 20.832 5.696 20.832 5.696l427.168 366.144v-498.656c0-1.952-0.704-2.944-0.512-3.2z"/>
<glyph unicode="" d="M512 928c-265.088 0-480-214.912-480-480s214.912-480 480-480 480 214.912 480 480-214.912 480-480 480zM512 736c35.328 0 64-28.672 64-64s-28.672-64-64-64-64 28.672-64 64 28.672 64 64 64zM640 192h-256v64h64v224h-64v64h192v-288h64v-64z"/>
<glyph unicode="" d="M512 928c-265.088 0-480-214.912-480-480s214.912-480 480-480 480 214.912 480 480-214.88 480-480 480zM512 32c-229.376 0-416 186.624-416 416s186.624 416 416 416 416-186.624 416-416-186.592-416-416-416zM576 480v64h-192v-64h64v-224h-64v-64h256v64h-64zM576 672c0-35.346-28.654-64-64-64s-64 28.654-64 64c0 35.346 28.654 64 64 64 35.346 0 64-28.654 64-64zM-10.816 441.632l-480.16 418.272c-6.016 5.248-13.504 8.096-21.024 8.096s-14.976-2.624-21.024-7.872l-480.16-417.984c-10.048-8.768-13.632-23.872-8.96-36.352s16.64-21.792 29.984-21.792h128.16v-320c0-35.328 28.672-64 64-64h224v256h128v-256h224c35.328 0 64 28.672 64 64v320h128.16c13.344 0 25.312 9.28 29.984 21.792s1.12 27.072-8.96 35.84z"/>
<glyph unicode="" d="M832 832c0 35.328-28.672 64-64 64s-64-28.672-64-64v-49.248l128-112.032v161.28zM1013.184 441.632l-480.16 418.272c-6.016 5.248-13.504 8.096-21.024 8.096s-14.976-2.624-21.024-7.872l-480.16-417.984c-10.048-8.768-13.632-23.872-8.96-36.352s16.64-21.792 29.984-21.792h128.16v-320c0-35.328 28.672-64 64-64h224v256h128v-256h224c35.328 0 64 28.672 64 64v320h128.16c13.344 0 25.312 9.28 29.984 21.792s1.12 27.072-8.96 35.84z"/>
<glyph unicode="" d="M32 128c0-35.328 28.672-64 64-64h832c35.328 0 64 28.672 64 64v448h-960v-448zM966.016 736h-486.016c0 0-44.992 52.992-56.512 65.984-8.256 9.376-19.488 30.016-41.984 30.016h-323.488c-14.368 0-26.016-11.648-26.016-25.984v-166.016h960v70.016c0 14.336-11.648 25.984-25.984 25.984z"/>
<glyph unicode="" d="M192 30.72c0-16.96 14.336-30.72 32-30.72h576c17.664 0 32 13.76 32 30.72v673.28h-640v-673.28zM640 576h64v-448h-64v448zM480 576h64v-448h-64v448zM320 576h64v-448h-64v448zM640 800v64h-256v-64h-192v-64h640v64z"/>
<glyph unicode="" d="M512 864c-160-192-320-384-320-576 0-256 256-288 320-288s320 32 320 288c0 192-160 384-320 576zM711.36 156.48c-18.88-23.648-49.472-39.456-82.88-39.456-19.36 0-40.512 3.488-57.152 15.488-4.32 3.104-7.744 7.296-8.224 12.608s1.984 10.24 5.888 13.856c25.984 24.032 106.496 110.048 126.144 137.12 3.52 4.832 8.384 8.288 14.656 7.904 5.984-0.32 11.296-3.936 13.76-9.376 21.92-48.448 17.248-101.376-12.192-138.144z"/>
<glyph unicode="" d="M992 384v127.936l-140.608 28.192c-7.936 29.28-19.424 57.024-34.208 82.752l79.456 119.264-90.432 90.496-119.296-79.424c-25.728 14.784-53.504 26.272-82.784 34.208l-28.128 140.576h-128l-28.128-140.608c-29.312-7.936-57.088-19.424-82.816-34.24l-119.2 79.52-90.528-90.56 79.456-119.232c-14.784-25.728-26.272-53.504-34.208-82.784l-140.576-28.096v-128.032l140.608-28.096c7.936-29.312 19.456-57.056 34.24-82.816l-79.488-119.264 90.496-90.496 119.232 79.488c25.728-14.784 53.504-26.272 82.784-34.208l28.128-140.576h128l28.128 140.608c29.28 7.936 57.056 19.424 82.784 34.208l119.264-79.488 90.496 90.496-79.488 119.264c14.784 25.76 26.272 53.504 34.208 82.784l140.608 28.128zM512 320c-70.688 0-128 57.312-128 128s57.312 128 128 128 128-57.312 128-128-57.312-128-128-128z"/>
<glyph unicode="" d="M512 928c-265.088 0-480-214.912-480-480s214.912-480 480-480 480 214.912 480 480-214.912 480-480 480zM691.968 326.24c16.064-16.064 16.064-42.112 0-58.176-8.064-8.064-18.592-12.064-29.12-12.064s-21.056 4-29.088 12.032l-121.76 121.792-121.76-121.792c-8.032-8.032-18.56-12.032-29.088-12.032s-21.056 4-29.088 12.032c-16.064 16.064-16.064 42.112 0 58.176l121.76 121.792-121.792 121.76c-16.064 16.064-16.064 42.112 0 58.176 16.064 16.064 42.112 16.064 58.176 0l121.792-121.76 121.76 121.792c16.064 16.064 42.112 16.064 58.176 0 16.064-16.064 16.064-42.112 0-58.176l-121.76-121.792 121.792-121.76z"/>
<glyph unicode="" d="M288 608h448c17.664 0 32 14.336 32 32s-14.336 32-32 32h-448c-17.664 0-32-14.336-32-32s14.336-32 32-32zM256 480h512c17.664 0 32 14.336 32 32s-14.336 32-32 32h-512c-17.664 0-32-14.336-32-32s14.336-32 32-32zM800 416h-576c-17.664 0-32-14.336-32-32s14.336-32 32-32h576c17.664 0 32 14.336 32 32s-14.336 32-32 32zM896 800h-768l-128-576 64-256h896l64 256-128 576zM704 288c0-32-16.224-64-36.256-64h-311.456c-20.064 0-36.288 32-36.288 64h-240.224l99.552 448h665.312l99.552-448h-240.192z"/>
<glyph unicode="" d="M983.424 96l-417.696 723.456c-11.424 19.808-32.576 32-55.424 32s-44-12.192-55.424-32l-417.664-723.456c-11.424-19.808-11.424-44.192 0-64s32.576-32 55.424-32h835.36c22.848 0 44 12.192 55.424 32s11.424 44.192 0 64zM512 128c-35.328 0-64 28.672-64 64s28.672 64 64 64 64-28.672 64-64-28.672-64-64-64zM576 352c0-35.328-28.672-64-64-64s-64 28.672-64 64v160c0 35.328 28.672 64 64 64s64-28.672 64-64v-160z"/>
<glyph unicode="" d="M983.424 96l-417.696 723.456c-11.424 19.808-32.576 32-55.424 32s-44-12.192-55.424-32l-417.664-723.456c-11.424-19.808-11.424-44.192 0-64s32.576-32 55.424-32h835.36c22.848 0 44 12.192 55.424 32s11.424 44.192 0 64zM92.64 64l417.664 723.456 417.696-723.456h-835.36zM576 192c0-35.346-28.654-64-64-64s-64 28.654-64 64c0 35.346 28.654 64 64 64 35.346 0 64-28.654 64-64zM448 512v-160c0-35.328 28.672-64 64-64s64 28.672 64 64v160c0 35.328-28.672 64-64 64s-64-28.672-64-64z"/>
<glyph unicode="" d="M902.016 896h-780.032c-49.696 0-89.984-42.976-89.984-96v-544c0-53.024 40.288-96 89.984-96h280.736l182.624-182.624c6.144-6.112 14.336-9.376 22.656-9.376 4.128 0 8.288 0.768 12.256 2.432 11.936 4.928 19.744 16.64 19.744 29.568v160h262.016c49.696 0 89.984 42.976 89.984 96v544c0 53.024-40.288 96-89.984 96zM467.424 521.824c0-26.080-4.512-49.728-13.504-70.848-9.024-21.152-21.152-40.096-36.416-56.672-15.328-16.672-33.088-31.072-53.344-43.232-20.256-12.096-42.048-21.376-65.44-27.648v78.24c27.872 9.952 48.576 25.184 62.080 45.92 13.472 20.672 20.224 45.408 20.224 74.208h-82.272v182.208h168.672v-182.176zM736 521.824c0-26.080-4.512-49.728-13.472-70.848-9.024-21.152-21.152-40.096-36.448-56.672-15.328-16.672-33.088-31.072-53.312-43.232-20.256-12.096-42.048-21.376-65.44-27.648v78.24c27.872 9.952 48.576 25.184 62.048 45.92 13.472 20.672 20.256 45.408 20.256 74.208h-82.304v182.208h168.672v-182.176z"/>
<glyph unicode="" d="M512 928c-265.088 0-480-214.912-480-480s214.912-480 480-480 480 214.912 480 480-214.912 480-480 480zM512 64c-211.744 0-384 172.256-384 384s172.256 384 384 384 384-172.256 384-384-172.256-384-384-384zM544 464c0-26.528-21.472-48-48-48v0c-26.528 0-48 21.472-48 48v256c0 26.528 21.472 48 48 48v0c26.528 0 48-21.472 48-48v-256zM496 384c-26.528 0-48 21.472-48 48v0c0 26.528 21.472 48 48 48h224c26.528 0 48-21.472 48-48v0c0-26.528-21.472-48-48-48h-224z"/>
<glyph unicode="" d="M512 928c-265.088 0-480-214.912-480-480s214.912-480 480-480 480 214.912 480 480-214.912 480-480 480zM512 32c-229.376 0-416 186.624-416 416s186.624 416 416 416 416-186.624 416-416-186.624-416-416-416zM691.968 627.968c-16.064 16.064-42.112 16.064-58.176 0l-121.792-121.792-121.76 121.792c-16.064 16.064-42.112 16.064-58.176 0-16.064-16.064-16.064-42.112 0-58.176l121.76-121.792-121.792-121.76c-16.064-16.064-16.064-42.112 0-58.176 8.064-8.064 18.592-12.064 29.12-12.064s21.056 4 29.088 12.032l121.76 121.792 121.76-121.792c8.032-8.032 18.56-12.032 29.088-12.032s21.056 4 29.088 12.032c16.064 16.064 16.064 42.112 0 58.176l-121.76 121.792 121.792 121.76c16.032 16.064 16.032 42.144 0 58.208z"/>
<glyph unicode="" d="M342.944 278.944c18.752-18.752 49.12-18.752 67.872 0l248.896 248.896c18.752 18.752 18.752 49.12 0 67.872s-49.12 18.752-67.872 0l-248.896-248.896c-18.752-18.752-18.752-49.12 0-67.872zM535.296 358.144l-67.872-67.872 22.624-22.624-203.648-203.648-158.4 158.4 203.648 203.648 22.624-22.624 67.872 67.872-22.624 22.624c-37.472 37.504-98.272 37.504-135.776 0l-203.648-203.648c-37.472-37.472-37.472-98.272 0-135.776l158.4-158.4c37.472-37.472 98.272-37.472 135.776 0l203.648 203.648c37.504 37.504 37.504 98.272 0 135.776l-22.624 22.624zM942.592 720.192l-158.4 158.4c-37.472 37.472-98.272 37.472-135.776 0l-203.648-203.648c-37.504-37.504-37.504-98.272 0-135.776l22.624-22.624 67.872 67.872-22.624 22.624 203.648 203.648 158.4-158.4-203.648-203.648-22.624 22.624-67.872-67.872 22.624-22.624c37.472-37.504 98.272-37.504 135.776 0l203.648 203.648c37.472 37.504 37.472 98.272 0 135.776z"/>
</font>
</defs>
</svg>
