<?xml version="1.0" encoding="UTF-8"?>
<!-- Generator: Adobe Illustrator 15.0.0, SVG Export Plug-In . SVG Version: 6.00 Build 0)  -->
<!DOCTYPE svg PUBLIC "-//W3C//DTD SVG 1.1//EN" "http://www.w3.org/Graphics/SVG/1.1/DTD/svg11.dtd">
<svg version="1.1" id="sprites" xmlns="http://www.w3.org/2000/svg" xmlns:xlink="http://www.w3.org/1999/xlink" x="0px" y="0px" width="82px" height="224px" viewBox="0 0 82 224" enable-background="new 0 0 82 224" xml:space="preserve">
<rect x="0.5" y="0.5" fill="#EDE4B2" width="13" height="13"/>
<rect x="0.5" y="14.5" fill="#5E4DFF" width="13" height="13"/>
<rect x="0.5" y="98.5" fill="#40993E" width="13" height="13"/>
<rect x="0.5" y="112.5" fill="#FF9633" width="13" height="13"/>
<rect x="0.5" y="140.5" fill="#FF73D8" width="13" height="13"/>
<rect x="0.5" y="154.5" fill="#A94DFF" width="13" height="13"/>
<rect x="0.5" y="168.5" fill="#E32D2D" width="13" height="13"/>
<rect x="0.5" y="182.5" fill="#D1CAA8" width="13" height="13"/>
<rect x="0.5" y="196.5" fill="#FFFFFF" width="13" height="13"/>
<rect x="0.5" y="210.5" fill="#EBFF66" width="13" height="13"/>
<rect x="0.5" y="28.5" width="13" height="13"/>
<rect x="0.5" y="42.5" fill="#804F33" width="13" height="13"/>
<rect x="0.5" y="70.5" fill="#FFCD4E" width="13" height="13"/>
<rect x="0.5" y="84.5" fill="#B3B3B3" width="13" height="13"/>
<rect x="1" y="57" fill="#E32D2D" width="4" height="4"/>
<rect x="5" y="57" fill="#FF9633" width="4" height="4"/>
<rect x="9" y="57" fill="#EBFF66" width="4" height="4"/>
<rect x="1" y="61" fill="#91FF66" width="4" height="4"/>
<rect x="5" y="61" fill="#4E994D" width="4" height="4"/>
<rect x="9" y="61" fill="#4DBBFF" width="4" height="4"/>
<rect x="1" y="65" fill="#5E4DFF" width="4" height="4"/>
<rect x="5" y="65" fill="#9D4DFF" width="4" height="4"/>
<rect x="9" y="65" fill="#FF66D4" width="4" height="4"/>
<rect x="1" y="127" fill="#F0E7ED" width="4" height="4"/>
<rect x="5" y="127" fill="#E5DFC4" width="4" height="4"/>
<rect x="9" y="127" fill="#F6F1E1" width="4" height="4"/>
<rect x="1" y="131" fill="#CFDEED" width="4" height="4"/>
<rect x="5" y="131" fill="#D2E1DE" width="4" height="4"/>
<rect x="9" y="131" fill="#E0E0D0" width="4" height="4"/>
<rect x="1" y="135" fill="#D2EAF0" width="4" height="4"/>
<rect x="5" y="135" fill="#EAF1E9" width="4" height="4"/>
<rect x="9" y="135" fill="#EFE0D8" width="4" height="4"/>
<path fill="#CFCFCF" d="M0,0v224h14V0H0z M13,223H1v-12h12V223z M13,197v12H1v-12H13z M13,183v12H1v-12H13z M13,169v12H1v-12H13z   M13,155v12H1v-12H13z M13,141v12H1v-12H13z M13,127v12H1v-12H13z M13,113v12H1v-12H13z M13,99v12H1V99H13z M13,85v12H1V85H13z   M13,71v12H1V71H13z M13,57v12H1V57H13z M13,43v12H1V43H13z M13,29v12H1V29H13z M13,15v12H1V15H13z M1,1h12v12H1V1z"/>
<path fill="#B3B3B3" d="M53.59,20.272c-0.716-0.519-0.92-1.459-0.455-2.1l9.843-13.562c0.464-0.641,1.42-0.738,2.136-0.218  c0.717,0.519,0.92,1.46,0.456,2.1l-9.842,13.561C55.264,20.694,54.307,20.793,53.59,20.272z"/>
<path fill="#FFFFFF" d="M73.77,8.094c-0.43-0.312-0.553-0.876-0.273-1.262l3.163-4.333c0.278-0.384,0.854-0.442,1.283-0.131  c0.43,0.312,0.552,0.876,0.273,1.26l-3.163,4.335C74.774,8.348,74.199,8.406,73.77,8.094z M56.049,19.201V2.446  c0-0.791-0.718-1.433-1.602-1.433c-0.886,0-1.603,0.642-1.603,1.433v16.755c0,0.791,0.717,1.433,1.603,1.433  C55.331,20.634,56.049,19.992,56.049,19.201z M80.438,5.321c-0.151-0.244-0.413-0.396-0.699-0.407  c-0.01-0.001-0.021-0.001-0.032-0.001c-0.274,0-0.533,0.132-0.695,0.353l-1.195,1.641c-0.188,0.257-0.219,0.597-0.079,0.883  c0.467,0.957,0.704,1.978,0.704,3.035c0,3.842-3.125,6.967-6.967,6.967s-6.967-3.125-6.967-6.967s3.125-6.967,6.967-6.967  c0.483,0,0.974,0.054,1.454,0.157c0.061,0.014,0.121,0.02,0.181,0.02c0.272,0,0.532-0.129,0.694-0.354l1.169-1.599  c0.163-0.226,0.208-0.515,0.119-0.779c-0.087-0.264-0.298-0.469-0.564-0.55c-0.992-0.303-2.02-0.455-3.053-0.455  c-5.803,0-10.527,4.722-10.527,10.526S65.672,21.35,71.475,21.35C77.278,21.35,82,16.629,82,10.824  C82,8.883,81.461,6.979,80.438,5.321z"/>
<path fill="#FFFFFF" d="M40.674,4.644v0.132c0,0.622-0.604,1.126-1.351,1.126H28.677c-0.746,0-1.351-0.504-1.351-1.126V4.644  c0-0.622,0.604-1.126,1.351-1.126h10.646C40.069,3.518,40.674,4.021,40.674,4.644z M39.323,7.809H28.677  c-0.746,0-1.351,0.504-1.351,1.125v0.133c0,0.621,0.604,1.125,1.351,1.125h10.646c0.746,0,1.351-0.504,1.351-1.125V8.934  C40.674,8.312,40.069,7.809,39.323,7.809z M39.323,12.099H28.677c-0.746,0-1.351,0.503-1.351,1.126v0.132  c0,0.622,0.604,1.126,1.351,1.126h10.646c0.746,0,1.351-0.504,1.351-1.126v-0.132C40.674,12.602,40.069,12.099,39.323,12.099z"/>
<path fill="#FFFFFF" d="M38.686,32.313c-0.418-0.418-1.096-0.418-1.515,0L34,35.485l-3.171-3.171c-0.419-0.418-1.097-0.418-1.515,0  c-0.419,0.418-0.419,1.097,0,1.516L32.484,37l-3.17,3.171c-0.419,0.418-0.419,1.097,0,1.515C29.523,41.895,29.798,42,30.071,42  c0.274,0,0.548-0.105,0.758-0.314L34,38.515l3.171,3.171C37.381,41.895,37.654,42,37.929,42c0.273,0,0.548-0.105,0.757-0.314  c0.418-0.418,0.418-1.097,0-1.515L35.516,37l3.17-3.171C39.104,33.411,39.104,32.732,38.686,32.313z"/>
<path fill="#FFFFFF" d="M34,56c-4.971,0-9,4.03-9,9s4.029,9,9,9s9-4.03,9-9S38.971,56,34,56z M34,72.8  c-4.301,0-7.801-3.499-7.801-7.8s3.5-7.8,7.801-7.8s7.801,3.499,7.801,7.8S38.301,72.8,34,72.8z M37.374,62.717L35.091,65  l2.283,2.283c0.301,0.301,0.301,0.79,0,1.091c-0.15,0.15-0.349,0.226-0.545,0.226c-0.198,0-0.395-0.076-0.546-0.226L34,66.091  l-2.283,2.283c-0.151,0.15-0.348,0.226-0.546,0.226c-0.196,0-0.395-0.076-0.545-0.226c-0.301-0.301-0.301-0.79,0-1.091L32.909,65  l-2.283-2.283c-0.301-0.301-0.301-0.79,0-1.091s0.79-0.301,1.091,0L34,63.909l2.283-2.283c0.301-0.301,0.79-0.301,1.091,0  S37.675,62.416,37.374,62.717z"/>
<path fill="#FFFFFF" d="M25,92.095c0,4.168,3.378,7.544,7.545,7.544c1.706,0,3.273-0.573,4.537-1.526l3.648,2.983  c0.471,0.472,1.235,0.472,1.706,0c0.472-0.472,0.472-1.235,0-1.707l-3.171-3.877c0.522-1.027,0.824-2.187,0.824-3.418  c0-4.168-3.377-7.545-7.545-7.545C28.378,84.55,25,87.926,25,92.095z M26.43,92.095c0-3.373,2.743-6.116,6.115-6.116  c3.373,0,6.115,2.743,6.115,6.116c0,3.373-2.742,6.116-6.115,6.116C29.173,98.211,26.43,95.467,26.43,92.095z"/>
<path fill="#FFFFFF" d="M37.36,120.798h-2.079v2.079h-2.08v-2.079H31.12v-2.079h2.081v-2.08h2.08v2.08h2.079V120.798z M41,119.718  c0,3.712-3.009,6.721-6.719,6.721c-1.521,0-2.917-0.511-4.042-1.361l-3.248,2.657c-0.42,0.421-1.1,0.421-1.519,0  c-0.421-0.419-0.421-1.101,0-1.52l2.823-3.452c-0.465-0.914-0.734-1.947-0.734-3.045c0-3.711,3.009-6.718,6.72-6.718  C37.991,113,41,116.007,41,119.718z M39.666,119.718c0-2.969-2.416-5.383-5.385-5.383c-2.971,0-5.383,2.414-5.383,5.383  c0,2.97,2.412,5.385,5.383,5.385C37.25,125.103,39.666,122.688,39.666,119.718z"/>
</svg>